%TF.GenerationSoftware,KiCad,Pcbnew,5.0.0*%
%TF.CreationDate,2018-08-21T18:31:41-04:00*%
%TF.ProjectId,140bpf,3134306270662E6B696361645F706362,rev?*%
%TF.SameCoordinates,Original*%
%TF.FileFunction,Legend,Bot*%
%TF.FilePolarity,Positive*%
%FSLAX46Y46*%
G04 Gerber Fmt 4.6, Leading zero omitted, Abs format (unit mm)*
G04 Created by KiCad (PCBNEW 5.0.0) date Tue Aug 21 18:31:41 2018*
%MOMM*%
%LPD*%
G01*
G04 APERTURE LIST*
%ADD10C,0.300000*%
%ADD11C,2.400000*%
%ADD12C,2.600000*%
G04 APERTURE END LIST*
D10*
X106632857Y-62903571D02*
X106632857Y-61403571D01*
X107490000Y-62903571D02*
X106847142Y-62046428D01*
X107490000Y-61403571D02*
X106632857Y-62260714D01*
X108990000Y-62760714D02*
X108918571Y-62832142D01*
X108704285Y-62903571D01*
X108561428Y-62903571D01*
X108347142Y-62832142D01*
X108204285Y-62689285D01*
X108132857Y-62546428D01*
X108061428Y-62260714D01*
X108061428Y-62046428D01*
X108132857Y-61760714D01*
X108204285Y-61617857D01*
X108347142Y-61475000D01*
X108561428Y-61403571D01*
X108704285Y-61403571D01*
X108918571Y-61475000D01*
X108990000Y-61546428D01*
X109490000Y-61403571D02*
X110418571Y-61403571D01*
X109918571Y-61975000D01*
X110132857Y-61975000D01*
X110275714Y-62046428D01*
X110347142Y-62117857D01*
X110418571Y-62260714D01*
X110418571Y-62617857D01*
X110347142Y-62760714D01*
X110275714Y-62832142D01*
X110132857Y-62903571D01*
X109704285Y-62903571D01*
X109561428Y-62832142D01*
X109490000Y-62760714D01*
X111490000Y-61403571D02*
X111490000Y-62475000D01*
X111418571Y-62689285D01*
X111275714Y-62832142D01*
X111061428Y-62903571D01*
X110918571Y-62903571D01*
X111990000Y-61403571D02*
X112490000Y-62903571D01*
X112990000Y-61403571D01*
X113490000Y-62903571D02*
X113490000Y-61403571D01*
X113490000Y-62117857D02*
X114347142Y-62117857D01*
X114347142Y-62903571D02*
X114347142Y-61403571D01*
X104132857Y-63953571D02*
X104990000Y-63953571D01*
X104561428Y-65453571D02*
X104561428Y-63953571D01*
X105704285Y-65453571D02*
X105561428Y-65382142D01*
X105490000Y-65310714D01*
X105418571Y-65167857D01*
X105418571Y-64739285D01*
X105490000Y-64596428D01*
X105561428Y-64525000D01*
X105704285Y-64453571D01*
X105918571Y-64453571D01*
X106061428Y-64525000D01*
X106132857Y-64596428D01*
X106204285Y-64739285D01*
X106204285Y-65167857D01*
X106132857Y-65310714D01*
X106061428Y-65382142D01*
X105918571Y-65453571D01*
X105704285Y-65453571D01*
X106847142Y-65453571D02*
X106847142Y-64453571D01*
X106847142Y-64596428D02*
X106918571Y-64525000D01*
X107061428Y-64453571D01*
X107275714Y-64453571D01*
X107418571Y-64525000D01*
X107490000Y-64667857D01*
X107490000Y-65453571D01*
X107490000Y-64667857D02*
X107561428Y-64525000D01*
X107704285Y-64453571D01*
X107918571Y-64453571D01*
X108061428Y-64525000D01*
X108132857Y-64667857D01*
X108132857Y-65453571D01*
X109918571Y-65382142D02*
X110132857Y-65453571D01*
X110490000Y-65453571D01*
X110632857Y-65382142D01*
X110704285Y-65310714D01*
X110775714Y-65167857D01*
X110775714Y-65025000D01*
X110704285Y-64882142D01*
X110632857Y-64810714D01*
X110490000Y-64739285D01*
X110204285Y-64667857D01*
X110061428Y-64596428D01*
X109990000Y-64525000D01*
X109918571Y-64382142D01*
X109918571Y-64239285D01*
X109990000Y-64096428D01*
X110061428Y-64025000D01*
X110204285Y-63953571D01*
X110561428Y-63953571D01*
X110775714Y-64025000D01*
X111275714Y-64453571D02*
X111561428Y-65453571D01*
X111847142Y-64739285D01*
X112132857Y-65453571D01*
X112418571Y-64453571D01*
X113632857Y-65453571D02*
X113632857Y-64667857D01*
X113561428Y-64525000D01*
X113418571Y-64453571D01*
X113132857Y-64453571D01*
X112990000Y-64525000D01*
X113632857Y-65382142D02*
X113490000Y-65453571D01*
X113132857Y-65453571D01*
X112990000Y-65382142D01*
X112918571Y-65239285D01*
X112918571Y-65096428D01*
X112990000Y-64953571D01*
X113132857Y-64882142D01*
X113490000Y-64882142D01*
X113632857Y-64810714D01*
X114347142Y-65453571D02*
X114347142Y-64453571D01*
X114347142Y-64739285D02*
X114418571Y-64596428D01*
X114490000Y-64525000D01*
X114632857Y-64453571D01*
X114775714Y-64453571D01*
X115061428Y-64453571D02*
X115632857Y-64453571D01*
X115275714Y-63953571D02*
X115275714Y-65239285D01*
X115347142Y-65382142D01*
X115490000Y-65453571D01*
X115632857Y-65453571D01*
X115990000Y-64453571D02*
X116775714Y-64453571D01*
X115990000Y-65453571D01*
X116775714Y-65453571D01*
%LPC*%
D11*
X95250000Y-63500000D03*
D12*
X97790000Y-66040000D03*
X97790000Y-60960000D03*
X92710000Y-60960000D03*
X92710000Y-66040000D03*
X124460000Y-66040000D03*
X124460000Y-60960000D03*
X129540000Y-60960000D03*
X129540000Y-66040000D03*
D11*
X127000000Y-63500000D03*
M02*
