%TF.GenerationSoftware,KiCad,Pcbnew,5.0.0*%
%TF.CreationDate,2018-08-21T18:31:41-04:00*%
%TF.ProjectId,140bpf,3134306270662E6B696361645F706362,rev?*%
%TF.SameCoordinates,Original*%
%TF.FileFunction,Legend,Top*%
%TF.FilePolarity,Positive*%
%FSLAX46Y46*%
G04 Gerber Fmt 4.6, Leading zero omitted, Abs format (unit mm)*
G04 Created by KiCad (PCBNEW 5.0.0) date Tue Aug 21 18:31:41 2018*
%MOMM*%
%LPD*%
G01*
G04 APERTURE LIST*
%ADD10C,0.300000*%
%ADD11C,0.120000*%
%ADD12C,0.150000*%
%ADD13C,2.400000*%
%ADD14C,2.600000*%
%ADD15R,2.180000X1.420000*%
%ADD16R,1.420000X2.180000*%
G04 APERTURE END LIST*
D10*
X105838571Y-60368571D02*
X104981428Y-60368571D01*
X105410000Y-60368571D02*
X105410000Y-58868571D01*
X105267142Y-59082857D01*
X105124285Y-59225714D01*
X104981428Y-59297142D01*
D11*
X91950000Y-62500000D02*
X91950000Y-64500000D01*
X98550000Y-62500000D02*
X98550000Y-64500000D01*
X94250000Y-66800000D02*
X96250000Y-66800000D01*
X94250000Y-60200000D02*
X96250000Y-60200000D01*
X126000000Y-60200000D02*
X128000000Y-60200000D01*
X126000000Y-66800000D02*
X128000000Y-66800000D01*
X130300000Y-62500000D02*
X130300000Y-64500000D01*
X123700000Y-62500000D02*
X123700000Y-64500000D01*
D12*
X114300000Y-59690000D02*
X106680000Y-59690000D01*
X106680000Y-59690000D02*
X106680000Y-67310000D01*
X106680000Y-67310000D02*
X114300000Y-67310000D01*
X114300000Y-67310000D02*
X114300000Y-59690000D01*
X94916666Y-57952380D02*
X94916666Y-58666666D01*
X94869047Y-58809523D01*
X94773809Y-58904761D01*
X94630952Y-58952380D01*
X94535714Y-58952380D01*
X95916666Y-58952380D02*
X95345238Y-58952380D01*
X95630952Y-58952380D02*
X95630952Y-57952380D01*
X95535714Y-58095238D01*
X95440476Y-58190476D01*
X95345238Y-58238095D01*
X99957142Y-67762380D02*
X99957142Y-66762380D01*
X100433333Y-67095714D02*
X100433333Y-67762380D01*
X100433333Y-67190952D02*
X100480952Y-67143333D01*
X100576190Y-67095714D01*
X100719047Y-67095714D01*
X100814285Y-67143333D01*
X100861904Y-67238571D01*
X100861904Y-67762380D01*
X101338095Y-67095714D02*
X101338095Y-68095714D01*
X101338095Y-67143333D02*
X101433333Y-67095714D01*
X101623809Y-67095714D01*
X101719047Y-67143333D01*
X101766666Y-67190952D01*
X101814285Y-67286190D01*
X101814285Y-67571904D01*
X101766666Y-67667142D01*
X101719047Y-67714761D01*
X101623809Y-67762380D01*
X101433333Y-67762380D01*
X101338095Y-67714761D01*
X102671428Y-67095714D02*
X102671428Y-67762380D01*
X102242857Y-67095714D02*
X102242857Y-67619523D01*
X102290476Y-67714761D01*
X102385714Y-67762380D01*
X102528571Y-67762380D01*
X102623809Y-67714761D01*
X102671428Y-67667142D01*
X103004761Y-67095714D02*
X103385714Y-67095714D01*
X103147619Y-66762380D02*
X103147619Y-67619523D01*
X103195238Y-67714761D01*
X103290476Y-67762380D01*
X103385714Y-67762380D01*
X126666666Y-57952380D02*
X126666666Y-58666666D01*
X126619047Y-58809523D01*
X126523809Y-58904761D01*
X126380952Y-58952380D01*
X126285714Y-58952380D01*
X127095238Y-58047619D02*
X127142857Y-58000000D01*
X127238095Y-57952380D01*
X127476190Y-57952380D01*
X127571428Y-58000000D01*
X127619047Y-58047619D01*
X127666666Y-58142857D01*
X127666666Y-58238095D01*
X127619047Y-58380952D01*
X127047619Y-58952380D01*
X127666666Y-58952380D01*
X117356190Y-66762380D02*
X117546666Y-66762380D01*
X117641904Y-66810000D01*
X117737142Y-66905238D01*
X117784761Y-67095714D01*
X117784761Y-67429047D01*
X117737142Y-67619523D01*
X117641904Y-67714761D01*
X117546666Y-67762380D01*
X117356190Y-67762380D01*
X117260952Y-67714761D01*
X117165714Y-67619523D01*
X117118095Y-67429047D01*
X117118095Y-67095714D01*
X117165714Y-66905238D01*
X117260952Y-66810000D01*
X117356190Y-66762380D01*
X118641904Y-67095714D02*
X118641904Y-67762380D01*
X118213333Y-67095714D02*
X118213333Y-67619523D01*
X118260952Y-67714761D01*
X118356190Y-67762380D01*
X118499047Y-67762380D01*
X118594285Y-67714761D01*
X118641904Y-67667142D01*
X118975238Y-67095714D02*
X119356190Y-67095714D01*
X119118095Y-66762380D02*
X119118095Y-67619523D01*
X119165714Y-67714761D01*
X119260952Y-67762380D01*
X119356190Y-67762380D01*
X119689523Y-67095714D02*
X119689523Y-68095714D01*
X119689523Y-67143333D02*
X119784761Y-67095714D01*
X119975238Y-67095714D01*
X120070476Y-67143333D01*
X120118095Y-67190952D01*
X120165714Y-67286190D01*
X120165714Y-67571904D01*
X120118095Y-67667142D01*
X120070476Y-67714761D01*
X119975238Y-67762380D01*
X119784761Y-67762380D01*
X119689523Y-67714761D01*
X121022857Y-67095714D02*
X121022857Y-67762380D01*
X120594285Y-67095714D02*
X120594285Y-67619523D01*
X120641904Y-67714761D01*
X120737142Y-67762380D01*
X120880000Y-67762380D01*
X120975238Y-67714761D01*
X121022857Y-67667142D01*
X121356190Y-67095714D02*
X121737142Y-67095714D01*
X121499047Y-66762380D02*
X121499047Y-67619523D01*
X121546666Y-67714761D01*
X121641904Y-67762380D01*
X121737142Y-67762380D01*
X113538095Y-68032380D02*
X113538095Y-68841904D01*
X113585714Y-68937142D01*
X113633333Y-68984761D01*
X113728571Y-69032380D01*
X113919047Y-69032380D01*
X114014285Y-68984761D01*
X114061904Y-68937142D01*
X114109523Y-68841904D01*
X114109523Y-68032380D01*
X115109523Y-69032380D02*
X114538095Y-69032380D01*
X114823809Y-69032380D02*
X114823809Y-68032380D01*
X114728571Y-68175238D01*
X114633333Y-68270476D01*
X114538095Y-68318095D01*
%LPC*%
D13*
X95250000Y-63500000D03*
D14*
X97790000Y-66040000D03*
X97790000Y-60960000D03*
X92710000Y-60960000D03*
X92710000Y-66040000D03*
X124460000Y-66040000D03*
X124460000Y-60960000D03*
X129540000Y-60960000D03*
X129540000Y-66040000D03*
D13*
X127000000Y-63500000D03*
D15*
X114555000Y-61590000D03*
X114555000Y-63500000D03*
X114555000Y-65410000D03*
D16*
X110490000Y-67565000D03*
D15*
X106425000Y-65410000D03*
X106425000Y-63500000D03*
X106425000Y-61590000D03*
D16*
X110490000Y-59435000D03*
M02*
