M48
;DRILL file {KiCad 5.0.0} date Tue Aug 21 18:31:43 2018
;FORMAT={-:-/ absolute / inch / decimal}
FMAT,2
INCH,TZ
T1C0.0130
T2C0.0591
T3C0.0669
%
G90
G05
M72
T1
X4.05Y-2.4
X4.05Y-2.6
X4.2Y-2.35
X4.2Y-2.65
X4.3Y-2.45
X4.3Y-2.55
X4.4Y-2.45
X4.4Y-2.55
X4.5Y-2.35
X4.5Y-2.65
X4.7Y-2.4
X4.7Y-2.6
T2
X5.Y-2.5
X3.75Y-2.5
T3
X4.9Y-2.4
X4.9Y-2.6
X5.1Y-2.4
X5.1Y-2.6
X3.65Y-2.4
X3.65Y-2.6
X3.85Y-2.4
X3.85Y-2.6
T0
M30
