%TF.GenerationSoftware,KiCad,Pcbnew,5.0.0*%
%TF.CreationDate,2018-08-21T18:31:41-04:00*%
%TF.ProjectId,140bpf,3134306270662E6B696361645F706362,rev?*%
%TF.SameCoordinates,Original*%
%TF.FileFunction,Copper,L1,Top,Signal*%
%TF.FilePolarity,Positive*%
%FSLAX46Y46*%
G04 Gerber Fmt 4.6, Leading zero omitted, Abs format (unit mm)*
G04 Created by KiCad (PCBNEW 5.0.0) date Tue Aug 21 18:31:41 2018*
%MOMM*%
%LPD*%
G01*
G04 APERTURE LIST*
%ADD10C,2.000000*%
%ADD11C,2.200000*%
%ADD12R,1.780000X1.020000*%
%ADD13R,1.020000X1.780000*%
%ADD14C,0.685800*%
%ADD15C,1.270000*%
%ADD16C,0.635000*%
%ADD17C,0.254000*%
G04 APERTURE END LIST*
D10*
X95250000Y-63500000D03*
D11*
X97790000Y-66040000D03*
X97790000Y-60960000D03*
X92710000Y-60960000D03*
X92710000Y-66040000D03*
X124460000Y-66040000D03*
X124460000Y-60960000D03*
X129540000Y-60960000D03*
X129540000Y-66040000D03*
D10*
X127000000Y-63500000D03*
D12*
X114555000Y-61590000D03*
X114555000Y-63500000D03*
X114555000Y-65410000D03*
D13*
X110490000Y-67565000D03*
D12*
X106425000Y-65410000D03*
X106425000Y-63500000D03*
X106425000Y-61590000D03*
D13*
X110490000Y-59435000D03*
D14*
X106680000Y-59690000D03*
X114300000Y-59690000D03*
X114300000Y-67310000D03*
X106680000Y-67310000D03*
X102870000Y-66040000D03*
X102870000Y-60960000D03*
X119380000Y-60960000D03*
X119380000Y-66040000D03*
X109220000Y-62230000D03*
X111760000Y-62230000D03*
X111760000Y-64770000D03*
X109220000Y-64770000D03*
D15*
X106425000Y-63500000D02*
X95250000Y-63500000D01*
D16*
X106425000Y-59945000D02*
X106425000Y-61590000D01*
X110490000Y-59435000D02*
X106935000Y-59435000D01*
D17*
X106935000Y-59435000D02*
X106425000Y-59945000D01*
D16*
X114555000Y-59945000D02*
X114555000Y-61590000D01*
X110490000Y-59435000D02*
X114045000Y-59435000D01*
D17*
X114045000Y-59435000D02*
X114555000Y-59945000D01*
D16*
X114555000Y-67055000D02*
X114555000Y-65410000D01*
X110490000Y-67565000D02*
X114045000Y-67565000D01*
D17*
X114045000Y-67565000D02*
X114555000Y-67055000D01*
D16*
X106425000Y-67055000D02*
X106425000Y-65410000D01*
X110490000Y-67565000D02*
X106935000Y-67565000D01*
D17*
X106935000Y-67565000D02*
X106425000Y-67055000D01*
D16*
X124460000Y-60960000D02*
X119380000Y-60960000D01*
X124460000Y-66040000D02*
X119380000Y-66040000D01*
X129540000Y-66040000D02*
X124460000Y-66040000D01*
X129540000Y-66040000D02*
X129540000Y-60960000D01*
X129540000Y-60960000D02*
X124460000Y-60960000D01*
X92710000Y-60960000D02*
X97790000Y-60960000D01*
X92710000Y-60960000D02*
X92710000Y-66040000D01*
X92710000Y-66040000D02*
X97790000Y-66040000D01*
X97790000Y-66040000D02*
X102870000Y-66040000D01*
X97790000Y-60960000D02*
X102870000Y-60960000D01*
D17*
X102870000Y-66040000D02*
X104140000Y-67310000D01*
X104140000Y-67310000D02*
X106680000Y-67310000D01*
X102870000Y-60960000D02*
X104140000Y-59690000D01*
X104140000Y-59690000D02*
X106680000Y-59690000D01*
X118110000Y-59690000D02*
X119380000Y-60960000D01*
X114300000Y-59690000D02*
X118110000Y-59690000D01*
X119380000Y-66040000D02*
X118110000Y-67310000D01*
X118110000Y-67310000D02*
X114300000Y-67310000D01*
D15*
X114555000Y-63500000D02*
X127000000Y-63500000D01*
M02*
